<?xml version="1.0" standalone="no"?>
<!DOCTYPE svg PUBLIC "-//W3C//DTD SVG 20010904//EN"
 "http://www.w3.org/TR/2001/REC-SVG-20010904/DTD/svg10.dtd">
<svg version="1.0" xmlns="http://www.w3.org/2000/svg"
 width="142.000000pt" height="142.000000pt" viewBox="0 0 142.000000 142.000000"
 preserveAspectRatio="xMidYMid meet">
<metadata>
Created by potrace 1.14, written by Peter Selinger 2001-2017
</metadata>
<g transform="translate(0.000000,142.000000) scale(0.100000,-0.100000)"
fill="#000000" stroke="none">
<path d="M660 1209 c-189 -21 -356 -158 -420 -344 -10 -30 -17 -55 -14 -55 3
0 0 -9 -6 -19 -5 -11 -24 -23 -42 -26 -82 -18 -131 -60 -131 -112 0 -48 44
-88 139 -124 51 -20 72 -34 84 -56 22 -42 85 -125 110 -146 168 -141 382 -169
575 -76 92 44 209 162 237 240 4 10 32 23 75 33 37 9 80 21 95 27 33 13 28 32
-5 20 -12 -5 -48 -12 -81 -16 l-59 -7 7 36 c35 187 -11 353 -133 475 -118 118
-264 169 -431 150z m-444 -529 c1 -48 0 -49 -18 -33 -20 18 -23 36 -8 64 17
31 25 22 26 -31z"/>
</g>
</svg>
